<!DOCTYPE svg PUBLIC "-//W3C//DTD SVG 1.1//EN" "http://www.w3.org/Graphics/SVG/1.1/DTD/svg11.dtd">
<!-- Uploaded to: SVG Repo, www.svgrepo.com, Transformed by: SVG Repo Mixer Tools -->
<svg height="800px" width="800px" version="1.1" id="Layer_1" xmlns="http://www.w3.org/2000/svg" xmlns:xlink="http://www.w3.org/1999/xlink" viewBox="0 0 512 512" xml:space="preserve" fill="#000000" transform="rotate(180)">
<g id="SVGRepo_bgCarrier" stroke-width="0"/>
<g id="SVGRepo_tracerCarrier" stroke-linecap="round" stroke-linejoin="round"/>
<g id="SVGRepo_iconCarrier"> <path style="fill:#7D868C;" d="M324.267,170.667c-9.422,0-17.067-7.639-17.067-17.067V51.2c0-28.233,22.967-51.2,51.2-51.2h68.267 c9.422,0,17.067,7.639,17.067,17.067s-7.645,17.067-17.067,17.067H358.4c-9.411,0-17.067,7.656-17.067,17.067v102.4 C341.333,163.028,333.689,170.667,324.267,170.667z"/> <path style="fill:#976c20;" d="M392.533,307.2h-204.8c-5.911,0-11.411-3.061-14.523-8.094c-3.1-5.034-3.389-11.316-0.744-16.606 L231.3,164.833c8.722-17.456,26.278-28.3,45.8-28.3h81.3c28.233,0,51.2,22.967,51.2,51.2v102.4 C409.6,299.561,401.955,307.2,392.533,307.2z"/> <path style="fill:#976c20;" d="M358.4,136.533h-81.3c-1.364,0-2.692,0.175-4.033,0.279V307.2h119.467 c9.422,0,17.067-7.639,17.067-17.067v-102.4C409.6,159.501,386.633,136.533,358.4,136.533z"/> <path style="fill:#7D868C;" d="M409.6,204.8h-85.333c-9.422,0-17.067,7.639-17.067,17.067c0,9.428,7.645,17.067,17.067,17.067H409.6 V204.8z"/> <path style="fill:#7D868C;" d="M91.022,375.467H34.133v-51.2c0-9.425-7.641-17.067-17.067-17.067S0,314.841,0,324.267V460.8 c0,9.425,7.641,17.067,17.067,17.067s17.067-7.641,17.067-17.067v-51.2h56.889V375.467z"/> <path style="fill:#333E48;" d="M392.533,512h-204.8c-65.98,0-119.467-53.487-119.467-119.467l0,0 c0-65.98,53.487-119.467,119.467-119.467h204.8c65.98,0,119.467,53.487,119.467,119.467l0,0C512,458.513,458.513,512,392.533,512z"/> <path style="fill:#333E48;" d="M392.533,273.067H273.067V512h119.467C458.514,512,512,458.513,512,392.533 S458.514,273.067,392.533,273.067z"/> <path style="fill:#7D868C;" d="M187.733,443.733c-28.233,0-51.2-22.967-51.2-51.2c0-28.233,22.967-51.2,51.2-51.2 s51.2,22.967,51.2,51.2C238.933,420.766,215.966,443.733,187.733,443.733z"/> <path style="fill:#7D868C;" d="M238.933,392.533c0-28.233-22.967-51.2-51.2-51.2v102.4 C215.966,443.733,238.933,420.766,238.933,392.533z"/> <path style="fill:#7D868C;" d="M392.533,443.733c-28.233,0-51.2-22.967-51.2-51.2c0-28.233,22.967-51.2,51.2-51.2 c28.233,0,51.2,22.967,51.2,51.2C443.733,420.766,420.766,443.733,392.533,443.733z"/> <path style="fill:#7D868C;" d="M443.733,392.533c0-28.233-22.967-51.2-51.2-51.2v102.4 C420.766,443.733,443.733,420.766,443.733,392.533z"/> </g>
</svg>