<?xml version="1.0" encoding="iso-8859-1"?>
<!-- Uploaded to: SVG Repo, www.svgrepo.com, Generator: SVG Repo Mixer Tools -->
<svg height="800px" width="800px" version="1.1" id="Layer_1" xmlns="http://www.w3.org/2000/svg" xmlns:xlink="http://www.w3.org/1999/xlink" 
	 viewBox="0 0 512.001 512.001" xml:space="preserve">
<path style="fill:#8C6D50;" d="M289.669,100.171h-66.781c-9.217,0-16.695-7.473-16.695-16.695v-33.39
	C206.193,22.467,228.66,0,256.278,0c27.618,0,50.086,22.467,50.086,50.086v33.39C306.364,92.699,298.887,100.171,289.669,100.171z"
	/>
<path style="fill:#765B43;" d="M289.669,100.171c9.217,0,16.695-7.473,16.695-16.695v-33.39C306.364,22.467,283.897,0,256.278,0
	v100.171H289.669z"/>
<path style="fill:#CFD8E2;" d="M356.561,200.343H156.218c-9.217,0-16.695-7.473-16.695-16.695v-66.781
	c0-27.618,22.467-50.086,50.086-50.086h133.562c27.618,0,49.974,22.467,49.974,50.086v66.781
	C373.145,192.87,365.779,200.343,356.561,200.343z"/>
<path style="fill:#BAC8D4;" d="M323.171,66.781H256.39v133.562h100.171c9.217,0,16.584-7.473,16.584-16.695v-66.781
	C373.145,89.248,350.79,66.781,323.171,66.781z"/>
<path style="fill:#E2E7EC;" d="M356.561,166.952H156.218c-27.618,0-50.086,22.467-50.086,50.086v86.53
	c0,9.222,7.478,16.695,16.695,16.695l267.123,0.571c9.217,0,16.695-7.473,16.695-16.695v-87.101
	C406.647,189.419,384.18,166.952,356.561,166.952z"/>
<path style="fill:#CCD5E0;" d="M356.561,166.952H256.39v153.596l133.562,0.285c9.217,0,16.695-7.473,16.695-16.695v-87.1
	C406.647,189.419,384.18,166.952,356.561,166.952z"/>
<path style="fill:#78A8E2;" d="M438.925,322.329l-59.101,156.267H131.733L73.745,322.218c-3.116-8.459,1.112-17.92,9.46-21.259
	l156.491-62.663l0.334-0.111l10.127-4.007c2.005-0.89,4.119-1.224,6.234-1.224c2.115,0,4.229,0.334,6.234,1.224l10.461,4.229
	l0.334,0.111l156.156,62.44C438.035,304.298,442.152,313.87,438.925,322.329z"/>
<path style="fill:#6B96C8;" d="M438.925,322.329l-59.101,156.267H256.39V232.954c2.114,0,4.229,0.334,6.234,1.224l10.461,4.229
	l0.334,0.111l156.156,62.44C438.035,304.298,442.152,313.87,438.925,322.329z"/>
<path style="fill:#A7E2E2;" d="M506.707,495.959c-1.113,9.238-9.461,15.694-18.586,14.58c-23.708-2.783-46.304-12.243-65.001-26.824
	c-48.083,37.62-118.535,37.731-166.73,0.223c-0.111-0.111-0.111-0.111-0.223-0.223c-24.151,18.81-53.759,28.271-83.476,28.271
	c-29.716,0-59.324-9.461-83.476-28.271c-18.809,14.692-41.515,24.152-65.445,26.935c-9.126,1.002-17.473-5.454-18.476-14.692
	c-1.112-9.127,5.454-17.363,14.582-18.476c21.704-2.56,42.072-12.466,57.542-27.825c6.457-6.567,17.029-6.567,23.597,0
	c38.175,38.176,105.18,38.176,143.355,0c3.339-3.339,7.681-5.009,12.022-4.897c4.118,0.111,8.348,1.67,11.575,4.897
	c38.175,38.176,105.179,38.176,143.355,0c6.457-6.567,17.029-6.567,23.597,0c15.358,15.36,35.616,25.154,57.208,27.825
	C501.253,478.485,507.821,486.833,506.707,495.959z"/>
<path style="fill:#8AC8C8;" d="M506.707,495.959c-1.113,9.238-9.461,15.694-18.586,14.58c-23.708-2.783-46.304-12.243-65.001-26.824
	c-48.083,37.62-118.535,37.731-166.73,0.223v-39.178c4.118,0.111,8.348,1.67,11.575,4.897c38.175,38.176,105.179,38.176,143.355,0
	c6.457-6.567,17.029-6.567,23.597,0c15.359,15.36,35.616,25.154,57.208,27.825C501.253,478.485,507.821,486.833,506.707,495.959z"/>
</svg>